<?xml version="1.0" encoding="UTF-8"?>
<svg id="Calque_1" xmlns="http://www.w3.org/2000/svg" viewBox="0 0 1000 1000">
    <defs>
        <style>.cls-1{fill:#113c2b;}.cls-1,.cls-2{stroke-width:0px;}.cls-2{fill:#f6ab11;}</style>
    </defs>
    <path class="cls-1"
          d="m307.52,687.39c-1.65,20.65-3.3,42.13-4.13,58.66h-2.48c-.83-16.52-2.48-37.59-4.13-59.07-5.42-64.31-9.89-148.2-11.75-188.4l-46.96,2.37c9.16,79.89,24.73,255.45,28.56,293.01,5.78-.41,16.11-.83,35.11-.83,13.63,0,26.02.41,34.28.83,4.35-37.59,20.08-216.56,29.38-299.45l-44.88,2.27c-2.11,39.05-7.88,124.71-13.01,190.61Z"/>
    <path class="cls-1"
          d="m380.22,639.06c0,66.09,0,114.83-.83,154.9h47.09c-.83-40.48-.83-89.22-.83-154.9s0-109.3.69-147.63l-46.77,2.36c.64,37.94.65,84.41.65,145.26Z"/>
    <path class="cls-1"
          d="m469.83,489.23c-4.06,45.64-22.67,231.03-31.78,304.72h45.03c.41-14.04,2.48-41.31,4.54-73.94h36.35c2.48,33.87,4.13,61.55,4.13,73.94h49.16c-10.21-76.75-29.69-269.68-33.34-308.47l-74.09,3.74Zm36.38,185.35h-14.87c2.89-35.11,5.78-71.87,8.68-103.68,2.06-18.59,4.13-40.07,5.37-55.76h2.07c1.24,15.7,2.48,37.59,4.54,55.76,2.89,31.39,5.78,68.57,8.67,103.68h-14.46Z"/>
    <path class="cls-1"
          d="m678.86,484.16c.83,30.98,2.07,88.4,2.07,129.29,0,28.92,2.07,59.48,3.72,92.11h-1.24c-2.89-28.09-6.61-57-11.15-79.72-11.57-58.66-25.2-119.79-28.5-141.68h-53.29c.42,39.24.42,89.22.42,154.9s0,114.01-.42,154.9h38.83c-.41-17.35-.41-62.37-.83-129.29-.41-27.68-1.65-62.37-3.3-101.61h1.24c3.72,33.04,7.85,66.92,13.63,97.9,11.57,47.5,23.96,104.92,29.33,133.01h47.92c-.83-39.24-.83-85.92-.83-155.31,0-65.68.83-133.83.83-154.49h-38.41Z"/>
    <path class="cls-1"
          d="m799.06,484.16h-58.24c.42,38.83.83,89.63.83,155.31s-.41,111.53-.83,154.49h57c49.98,0,68.98-27.26,68.98-160.68s-21.48-149.12-67.74-149.12Zm-2.89,259.41c-3.3,0-6.61,0-9.91-.41-.41-22.31-.41-54.52-.41-103.27,0-37.59.41-80.55.83-108.64,3.31-.41,6.61-.41,10.33-.41,16.94,0,24.79,8.67,24.79,106.16s-7.02,106.57-25.61,106.57Z"/>
    <path class="cls-1"
          d="m987,538.27c-.41-7.02-.41-18.59-.41-28.09s0-19.83.41-26.02h-101.61c.41,38,.41,89.22.41,154.9s0,114.01-.41,154.9h101.61c-.41-7.85-.41-19.41-.41-28.91,0-10.33,0-21.89.41-28.91-19.41,0-40.48.41-56.59.41v-77.24c19.41,0,38.83,0,54.52.41v-49.16c-15.7.41-35.11.83-54.52.83v-73.94c16.11,0,36.76.41,56.59.83Z"/>
    <path class="cls-2"
          d="m903.57,415.67c22.47-24.87,33.92-57,32.23-90.47-3.38-66.96-58.94-119.15-125.25-119.15-2.12,0-4.26.05-6.41.16l-671.99,33.96c-33.47,1.69-64.29,16.32-86.76,41.18-22.47,24.87-33.92,57-32.23,90.47,1.69,33.47,16.32,64.29,41.18,86.76,7.04,6.36,14.67,11.8,22.73,16.34,2.26-1.31,4.56-2.57,6.93-3.73,26.76-13.1,56.96-15.02,85.07-5.38,14.09,4.83,26.82,12.28,37.67,21.87l610.06-30.83c33.48-1.69,64.29-16.32,86.76-41.18Zm-810.27-14.21c-.17-3.29-.18-7.13-.01-11.16,16.28-.09,37.71.29,58.15-.74,5.47-.28,10.4-.53,13.86-.88-.13,1.1-.06,2.38-.02,3.29.3,6.02,2.45,8.66,8.11,8.37,4.75-.24,6.83-2.54,6.58-7.29-.34-6.75-3.45-10.44-25.63-11.15-56.04-.83-63.96-12.69-65.29-39.15-1.81-35.77,23.04-47.46,86.19-50.65,73.92-3.74,89.08,6.48,90.5,34.58.15,2.92.13,6.21.11,9.51-12.85-.81-35.51-.22-52.48.64-8.22.42-15.15.77-19.7,1.18.13-1.11.08-2.02.04-2.93-.3-5.84-2.44-8.48-8.1-8.19-4.75.24-7,2.73-6.79,6.75.35,6.94,3.65,10.61,29.68,11.49,49.12,1.54,61.29,10.63,62.86,41.84,1.66,32.85-16.94,44.96-87.58,48.53-73.56,3.72-88.97-4.29-90.47-34.04Zm285.06,20.91c.06-6.04-.16-14.08-.45-23.4l-6.94.35-8.4.42c.48,9.49,1.25,17.5,2.09,23.32l-92.54,4.68c6.65-34.92,15.66-121.01,15.71-138.03l160.8-8.13c2.71,17.43,21.27,102.13,31.74,135.63l-102.03,5.16Zm200.61-10.14c-4.52-9.84-7.68-17.91-11.77-26.49-4.11-8.94-7.29-17.56-10.11-26.2l-.73.04c1.46,10.72,2.48,20.19,3.4,31.12.93,11.12,1.31,18.6,1.86,22.41l-76.47,3.86c-.77-18.81-1.25-39.28-2.73-68.48-1.47-29.02-2.29-48.92-4.19-68.41l100.57-5.08c1.6,6.32,8.65,22.62,12.45,32.67,2.35,6.65,5.06,13.28,7.26,20.49l.72-.22c-.97-8.37-1.72-16.02-2.19-21.66-.98-12.21-1.94-23.87-2.9-32.06l76.11-3.85c-.28,12.64,1.07,39.29,2.54,68.31,1.55,30.66,2.6,51.47,4.01,68.6l-97.83,4.94Zm103.55-40.55c-.17-3.29-.18-7.13-.01-11.16,16.28-.09,37.71.29,58.15-.74,5.47-.28,10.4-.53,13.86-.88-.13,1.1-.06,2.38-.02,3.29.3,6.02,2.45,8.66,8.11,8.37,4.75-.24,6.83-2.54,6.58-7.29-.34-6.75-3.45-10.44-25.63-11.15-56.04-.83-63.96-12.69-65.29-39.15-1.81-35.77,23.04-47.46,86.19-50.65,73.92-3.74,89.08,6.48,90.5,34.59.15,2.92.13,6.21.11,9.51-12.85-.81-35.51-.22-52.49.64-8.22.42-15.15.77-19.7,1.18.13-1.1.08-2.02.04-2.93-.3-5.84-2.44-8.48-8.1-8.19-4.75.24-7,2.73-6.79,6.75.35,6.94,3.65,10.61,29.68,11.49,49.12,1.54,61.29,10.63,62.86,41.84,1.66,32.85-16.94,44.96-87.58,48.53-73.56,3.72-88.97-4.29-90.47-34.04Z"/>
    <path class="cls-2"
          d="m366.26,309.71l-1.28.06c-.53,7.53-1.19,16.34-1.76,23.15-.92,10.84-1.45,22.03-1.44,33.01l7.67-.39,6.02-.3c-1.1-10.92-2.57-22.01-4.76-32.7-1.44-6.7-2.97-15.4-4.45-22.83Z"/>
    <path class="cls-2"
          d="m164.03,480.54c-10.14-3.48-20.61-5.2-31.04-5.2-14.42,0-28.77,3.3-42.13,9.84-23.03,11.28-40.28,30.81-48.57,54.99-8.29,24.18-6.65,50.19,4.61,73.22,11.26,23.03,30.77,40.27,54.94,48.55,24.19,8.29,50.19,6.65,73.22-4.62,23.03-11.27,40.28-30.8,48.58-54.99,8.29-24.19,6.65-50.19-4.62-73.22s-30.8-40.28-54.99-48.57Zm42.82,72.54c-2.14,9.81-6.3,19.21-12.2,27.44-5.13,7.64-11.6,14.17-19.11,19.34-5.95,3.98-12.75,6.46-19.84,7.25-2.41.32-4.81.43-7.19.48-4.61.07-9.25-.01-13.8.72-5.33.68-10.11,3.35-13.58,7.39-.28.41-.5.83-.85,1.22-1.83,2.82-3.97,5.52-6.23,8.12-.13-2.34-.13-4.64-.05-6.97.01-1.5.09-2.98.19-4.53-.03-3.88-1.29-7.76-3.53-11.03-1.53-2.24-3.38-4.17-5.29-5.9-2.83-2.62-6.05-4.94-8.97-7.31-.83-.72-1.53-1.39-2.3-2.08-1.81-1.62-3.45-3.33-4.95-5.21-2.17-2.46-3.95-5.22-5.44-8.18-.97-1.77-1.77-3.62-2.48-5.51-2.72-7.96-3.94-16.34-3.72-24.72.06-6.86,1.02-13.63,2.83-20.18.84-2.87,1.79-5.63,2.86-8.34.59-1.3,1.12-2.63,1.75-3.85,1.5,4.82,3.98,9.32,7.27,13.1,2.74,3.09,5.61,6.01,8.72,8.65,2.02,1.84,4.15,3.58,6.3,5.25,2.15,1.67,4.15,3.57,5.98,5.56,2.85,2.98,5.37,6.29,7.45,9.87,1.29,2.31,2.28,4.65,3.18,7.04,1.07,2.95,1.84,5.94,2.33,8.9.6,3.07.85,6.1.8,9.17.03,3.45-.36,6.9-1.03,10.33-.27,1.41-.6,2.81-1,4.17.57-1.67,1.29-3.14,2.04-4.68,4.95-9.63,12.74-17.5,22.33-22.68,5.34-2.61,11.02-4.33,16.9-4.96,1.74-.26,3.5-.38,5.28-.34,7.79-.34,15.7-.21,23.36-2.25,3.7-.96,7.36-2.43,10.64-4.46.45-.27.91-.55,1.36-.82Z"/>
    <path class="cls-2"
          d="m148.73,584.35c-6.39,2.54-12.34,6.09-17.62,10.6-3.98,3.66-6.98,8.22-8.78,13.27,1.99-1.83,3.98-3.66,6.07-5.38,10.74-9.37,24.05-14.92,36.67-20.99,7.78-3.65,15.36-7.57,22.84-11.6-.17.08-.47.12-.62.14-12.85,4.63-25.92,8.68-38.56,13.96Z"/>
    <path class="cls-2"
          d="m117.26,584.32c-.08-.39-.27-.67-.42-1.08-.9-2.6-1.99-5.27-3.28-7.79-.59-1.21-1.25-2.43-1.92-3.6-.8-1.42-1.56-2.76-2.37-4.18-5.86-9.9-12.45-19.33-18.63-29.12-.3-.6-.72-1.25-1.19-1.77,3.36,8.18,7.33,16.07,11.21,23.99,1.39,2.84,2.89,5.58,4.3,8.36,1.35,2.76,2.68,5.36,3.9,8.08.84,1.72,1.6,3.49,2.36,5.25.38.78.74,1.62,1.01,2.5,1.18,2.84,2.08,5.66,2.93,8.61,1.16,4.34,2.07,8.81,2.48,13.26,1.56-4.77,2.02-9.85,1.39-14.73-.23-2.66-.92-5.26-1.78-7.78Z"/>
</svg>